# Blender v2.78 (sub 0) OBJ File: 'Europalette.blend'
# www.blender.org
mtllib Europalette.mtl
o EuroPalette_Cube.026
v 0.786985 -0.064904 -0.807813
v 0.786985 0.026806 -0.807813
v 0.590828 -0.064904 -0.807813
v 0.590828 0.026806 -0.807813
v 0.786985 -0.064904 -1.010706
v 0.786985 0.026806 -1.010706
v 0.590828 -0.064904 -1.010705
v 0.590828 0.026806 -1.010705
v -0.590341 -0.064904 -0.807812
v -0.590341 0.026806 -0.807812
v -0.786499 -0.064904 -0.807812
v -0.786499 0.026806 -0.807812
v -0.590341 -0.064904 -1.010705
v -0.590341 0.026806 -1.010705
v -0.786499 -0.064904 -1.010705
v -0.786499 0.026806 -1.010705
v 0.098763 -0.064904 -0.807813
v 0.098763 0.026806 -0.807813
v -0.097395 -0.064904 -0.807813
v -0.097395 0.026806 -0.807813
v 0.098763 -0.064904 -1.010705
v 0.098763 0.026806 -1.010705
v -0.097395 -0.064904 -1.010705
v -0.097395 0.026806 -1.010705
v 0.786985 -0.064904 0.113051
v 0.786985 0.026806 0.113051
v 0.590828 -0.064904 0.113051
v 0.590828 0.026806 0.113051
v 0.786985 -0.064904 -0.089842
v 0.786985 0.026806 -0.089842
v 0.590828 -0.064904 -0.089842
v 0.590828 0.026806 -0.089842
v -0.590341 -0.064904 0.113052
v -0.590341 0.026806 0.113052
v -0.786499 -0.064904 0.113052
v -0.786499 0.026806 0.113052
v -0.590341 -0.064904 -0.089841
v -0.590341 0.026806 -0.089841
v -0.786499 -0.064904 -0.089841
v -0.786499 0.026806 -0.089841
v 0.098763 -0.064904 0.113051
v 0.098763 0.026806 0.113051
v -0.097395 -0.064904 0.113051
v -0.097395 0.026806 0.113051
v 0.098763 -0.064904 -0.089841
v 0.098763 0.026806 -0.089841
v -0.097394 -0.064904 -0.089841
v -0.097394 0.026806 -0.089841
v 0.786985 -0.064904 1.008512
v 0.786985 0.026806 1.008512
v 0.590828 -0.064904 1.008512
v 0.590828 0.026806 1.008512
v 0.786985 -0.064904 0.805619
v 0.786985 0.026806 0.805619
v 0.590828 -0.064904 0.805619
v 0.590828 0.026806 0.805619
v -0.590341 -0.064904 1.008512
v -0.590341 0.026806 1.008512
v -0.786499 -0.064904 1.008512
v -0.786499 0.026806 1.008512
v -0.590341 -0.064904 0.805620
v -0.590341 0.026806 0.805620
v -0.786499 -0.064904 0.805620
v -0.786499 0.026806 0.805620
v 0.098763 -0.064904 1.008512
v 0.098763 0.026806 1.008512
v -0.097395 -0.064904 1.008512
v -0.097395 0.026806 1.008512
v 0.098763 -0.064904 0.805619
v 0.098763 0.026806 0.805619
v -0.097395 -0.064904 0.805619
v -0.097395 0.026806 0.805619
v 0.778764 0.024848 1.007995
v 0.778764 0.066275 1.007995
v -0.778764 0.024848 1.007995
v -0.778764 0.066275 1.007995
v 0.778764 0.024848 0.805103
v 0.778764 0.066275 0.805103
v -0.778764 0.024848 0.805103
v -0.778764 0.066275 0.805103
v 0.778764 0.024848 0.112711
v 0.778764 0.066275 0.112711
v -0.778764 0.024848 0.112711
v -0.778764 0.066275 0.112711
v 0.778764 0.024848 -0.090182
v 0.778764 0.066275 -0.090182
v -0.778764 0.024848 -0.090182
v -0.778764 0.066275 -0.090182
v 0.778764 0.024848 -0.808034
v 0.778764 0.066275 -0.808034
v -0.778764 0.024848 -0.808034
v -0.778764 0.066275 -0.808034
v 0.778764 0.024848 -1.010926
v 0.778764 0.066275 -1.010926
v -0.778764 0.024848 -1.010926
v -0.778764 0.066275 -1.010926
v -0.791281 -0.122623 1.015927
v -0.791281 -0.061500 1.015927
v -0.791281 -0.122623 -1.015927
v -0.791281 -0.061500 -1.015927
v -0.588388 -0.122623 1.015927
v -0.588388 -0.061500 1.015927
v -0.588388 -0.122623 -1.015927
v -0.588388 -0.061500 -1.015927
v -0.101446 -0.122623 1.015927
v -0.101446 -0.061500 1.015927
v -0.101446 -0.122623 -1.015927
v -0.101446 -0.061500 -1.015927
v 0.101446 -0.122623 1.015927
v 0.101446 -0.061500 1.015927
v 0.101446 -0.122623 -1.015927
v 0.101446 -0.061500 -1.015927
v 0.588388 -0.122623 1.015927
v 0.588388 -0.061500 1.015927
v 0.588388 -0.122623 -1.015927
v 0.588388 -0.061500 -1.015927
v 0.791281 -0.122623 1.015927
v 0.791281 -0.061500 1.015927
v 0.791281 -0.122623 -1.015927
v 0.791281 -0.061500 -1.015927
v -0.791281 0.061500 1.015927
v -0.791281 0.122623 1.015927
v -0.791281 0.061500 -1.015927
v -0.791281 0.122623 -1.015927
v -0.588388 0.061500 1.015927
v -0.588388 0.122623 1.015927
v -0.588388 0.061500 -1.015927
v -0.588388 0.122623 -1.015927
v -0.446364 0.061500 1.015927
v -0.446364 0.122623 1.015927
v -0.446364 0.061500 -1.015927
v -0.446364 0.122623 -1.015927
v -0.243471 0.061500 1.015927
v -0.243471 0.122623 1.015927
v -0.243471 0.061500 -1.015927
v -0.243471 0.122623 -1.015927
v -0.101446 0.061500 1.015927
v -0.101446 0.122623 1.015927
v -0.101446 0.061500 -1.015927
v -0.101446 0.122623 -1.015927
v 0.101446 0.061500 1.015927
v 0.101446 0.122623 1.015927
v 0.101446 0.061500 -1.015927
v 0.101446 0.122623 -1.015927
v 0.243471 0.061500 1.015927
v 0.243471 0.122623 1.015927
v 0.243471 0.061500 -1.015927
v 0.243471 0.122623 -1.015927
v 0.446364 0.061500 1.015927
v 0.446364 0.122623 1.015927
v 0.446364 0.061500 -1.015927
v 0.446364 0.122623 -1.015927
v 0.588388 0.061500 1.015927
v 0.588388 0.122623 1.015927
v 0.588388 0.061500 -1.015927
v 0.588388 0.122623 -1.015927
v 0.791281 0.061500 1.015927
v 0.791281 0.122623 1.015927
v 0.791281 0.061500 -1.015927
v 0.791281 0.122623 -1.015927
v -0.101446 0.061500 0.000000
v -0.101446 0.122623 0.000000
v 0.101446 0.061500 0.000000
v 0.101446 0.122623 0.000000
v -0.446364 0.061500 0.000000
v -0.446364 0.122623 0.000000
v -0.243471 0.061500 0.000000
v -0.243471 0.122623 0.000000
v -0.791281 0.061500 0.000000
v -0.791281 0.122623 0.000000
v -0.588388 0.061500 0.000000
v -0.588388 0.122623 0.000000
v 0.243471 0.061500 0.000000
v 0.243471 0.122623 0.000000
v 0.446364 0.061500 0.000000
v 0.446364 0.122623 0.000000
v 0.588388 0.061500 0.000000
v 0.588388 0.122623 0.000000
v 0.791281 0.061500 0.000000
v 0.791281 0.122623 0.000000
v 0.588388 -0.122623 0.000000
v 0.588388 -0.061500 -0.000000
v 0.791281 -0.122623 -0.000000
v 0.791281 -0.061500 0.000000
v -0.101446 -0.122623 0.000000
v -0.101446 -0.061500 0.000000
v 0.101446 -0.122623 -0.000000
v 0.101446 -0.061500 0.000000
v -0.791281 -0.122623 0.000000
v -0.791281 -0.061500 0.000000
v -0.588388 -0.122623 0.000000
v -0.588388 -0.061500 0.000000
v 0.000000 0.024848 0.112711
v 0.000000 0.066275 0.112711
v 0.000000 0.024848 -0.090182
v 0.000000 0.066275 -0.090182
v 0.000000 0.024848 -0.808034
v 0.000000 0.066275 -0.808034
v 0.000000 0.024848 -1.010926
v 0.000000 0.066275 -1.010926
v 0.000000 0.024848 1.007995
v -0.000000 0.066275 1.007995
v -0.000000 0.024848 0.805103
v 0.000000 0.066275 0.805103
v -0.000000 0.066275 1.007995
v 0.000000 0.066275 0.805103
v -0.000000 0.024848 0.805103
v 0.000000 0.024848 1.007995
vt 0.4066 0.3541
vt 0.4066 0.4925
vt 0.3220 0.4925
vt 0.3220 0.3541
vt 0.4387 0.7694
vt 0.4387 0.9078
vt 0.4299 0.9078
vt 0.4299 0.7694
vt 0.2373 0.4925
vt 0.2373 0.3541
vt 0.3220 0.3541
vt 0.3220 0.4925
vt 0.5759 0.2157
vt 0.5759 0.3541
vt 0.5672 0.3541
vt 0.5672 0.2157
vt 0.2042 0.9359
vt 0.1955 0.9359
vt 0.1955 0.8467
vt 0.2042 0.8467
vt 0.2042 0.8467
vt 0.2130 0.8467
vt 0.2130 0.9359
vt 0.2042 0.9359
vt 0.6606 0.3541
vt 0.6606 0.4925
vt 0.5759 0.4925
vt 0.5759 0.3541
vt 0.1955 0.8467
vt 0.1955 0.9851
vt 0.1868 0.9851
vt 0.1868 0.8467
vt 0.5759 0.3541
vt 0.5759 0.2157
vt 0.6606 0.2157
vt 0.6606 0.3541
vt 0.2130 0.7082
vt 0.2130 0.8467
vt 0.2042 0.8467
vt 0.2042 0.7082
vt 0.4562 0.9970
vt 0.4474 0.9970
vt 0.4474 0.9078
vt 0.4562 0.9078
vt 0.4736 0.9970
vt 0.4649 0.9970
vt 0.4649 0.9078
vt 0.4736 0.9078
vt 0.7286 0.0000
vt 0.7286 0.1384
vt 0.6440 0.1384
vt 0.6440 0.0000
vt 0.4562 0.7694
vt 0.4562 0.9078
vt 0.4474 0.9078
vt 0.4474 0.7694
vt 0.4066 0.6310
vt 0.4066 0.4925
vt 0.4913 0.4925
vt 0.4913 0.6310
vt 0.4649 0.7694
vt 0.4649 0.9078
vt 0.4562 0.9078
vt 0.4562 0.7694
vt 0.9494 0.4833
vt 0.9407 0.4833
vt 0.9407 0.3941
vt 0.9494 0.3941
vt 0.9552 0.7202
vt 0.9465 0.7202
vt 0.9465 0.6310
vt 0.9552 0.6310
vt 0.3220 0.6310
vt 0.3220 0.7694
vt 0.2373 0.7694
vt 0.2373 0.6310
vt 0.4824 0.7694
vt 0.4824 0.9078
vt 0.4736 0.9078
vt 0.4736 0.7694
vt 0.4066 0.7694
vt 0.4066 0.6310
vt 0.4913 0.6310
vt 0.4913 0.7694
vt 0.1955 0.7082
vt 0.1955 0.8467
vt 0.1868 0.8467
vt 0.1868 0.7082
vt 0.4387 0.9970
vt 0.4299 0.9970
vt 0.4299 0.9078
vt 0.4387 0.9078
vt 0.9494 0.5725
vt 0.9407 0.5725
vt 0.9407 0.4833
vt 0.9494 0.4833
vt 0.4913 0.4925
vt 0.4913 0.3541
vt 0.5759 0.3541
vt 0.5759 0.4925
vt 0.4824 0.9078
vt 0.4824 0.7694
vt 0.4911 0.7694
vt 0.4911 0.9078
vt 0.3220 0.6310
vt 0.3220 0.4925
vt 0.4066 0.4925
vt 0.4066 0.6310
vt 0.4212 0.7694
vt 0.4212 0.9078
vt 0.4124 0.9078
vt 0.4124 0.7694
vt 0.4212 0.9970
vt 0.4124 0.9970
vt 0.4124 0.9078
vt 0.4212 0.9078
vt 0.4824 0.9970
vt 0.4736 0.9970
vt 0.4736 0.9078
vt 0.4824 0.9078
vt 0.3220 0.4925
vt 0.3220 0.6310
vt 0.2373 0.6310
vt 0.2373 0.4925
vt 0.4736 0.7694
vt 0.4736 0.9078
vt 0.4649 0.9078
vt 0.4649 0.7694
vt 0.4066 0.4925
vt 0.4066 0.3541
vt 0.4913 0.3541
vt 0.4913 0.4925
vt 0.2217 0.7082
vt 0.2217 0.8467
vt 0.2130 0.8467
vt 0.2130 0.7082
vt 0.2217 0.9359
vt 0.2130 0.9359
vt 0.2130 0.8467
vt 0.2217 0.8467
vt 0.9494 0.3941
vt 0.9407 0.3941
vt 0.9407 0.3049
vt 0.9494 0.3049
vt 0.4066 0.6310
vt 0.4066 0.7694
vt 0.3220 0.7694
vt 0.3220 0.6310
vt 0.4299 0.7694
vt 0.4299 0.9078
vt 0.4212 0.9078
vt 0.4212 0.7694
vt 0.5593 0.1384
vt 0.5593 0.0000
vt 0.6440 0.0000
vt 0.6440 0.1384
vt 0.1868 0.7082
vt 0.1868 0.8467
vt 0.1780 0.8467
vt 0.1780 0.7082
vt 0.4299 0.9970
vt 0.4212 0.9970
vt 0.4212 0.9078
vt 0.4299 0.9078
vt 0.9494 0.3049
vt 0.9407 0.3049
vt 0.9407 0.2157
vt 0.9494 0.2157
vt 0.5759 0.6310
vt 0.5759 0.4925
vt 0.6606 0.4925
vt 0.6606 0.6310
vt 0.1868 0.8467
vt 0.1868 0.9851
vt 0.1780 0.9851
vt 0.1780 0.8467
vt 0.4747 0.2769
vt 0.4747 0.1384
vt 0.5593 0.1384
vt 0.5593 0.2769
vt 0.2305 0.7082
vt 0.2305 0.8467
vt 0.2217 0.8467
vt 0.2217 0.7082
vt 0.2305 0.9359
vt 0.2217 0.9359
vt 0.2217 0.8467
vt 0.2305 0.8467
vt 0.4649 0.9970
vt 0.4562 0.9970
vt 0.4562 0.9078
vt 0.4649 0.9078
vt 0.4913 0.6310
vt 0.4913 0.4925
vt 0.5759 0.4925
vt 0.5759 0.6310
vt 0.4474 0.7694
vt 0.4474 0.9078
vt 0.4387 0.9078
vt 0.4387 0.7694
vt 0.5593 0.0000
vt 0.5593 0.1384
vt 0.4747 0.1384
vt 0.4747 0.0000
vt 0.2042 0.7082
vt 0.2042 0.8467
vt 0.1955 0.8467
vt 0.1955 0.7082
vt 0.4474 0.9970
vt 0.4387 0.9970
vt 0.4387 0.9078
vt 0.4474 0.9078
vt 0.4824 0.9078
vt 0.4911 0.9078
vt 0.4911 0.9970
vt 0.4824 0.9970
vt 0.2373 0.0000
vt 0.2967 0.0000
vt 0.2967 0.3541
vt 0.2373 0.3541
vt 0.5271 0.2769
vt 0.5271 0.3394
vt 0.5184 0.3394
vt 0.5184 0.2769
vt 0.4747 0.3541
vt 0.4154 0.3541
vt 0.4154 0.0000
vt 0.4747 0.0000
vt 0.5009 0.3394
vt 0.5009 0.2769
vt 0.5097 0.2769
vt 0.5097 0.3394
vt 0.9465 0.9851
vt 0.9377 0.9851
vt 0.9377 0.6310
vt 0.9465 0.6310
vt 0.9319 0.5698
vt 0.9232 0.5698
vt 0.9232 0.2157
vt 0.9319 0.2157
vt 0.0000 0.3541
vt 0.0593 0.3541
vt 0.0593 0.7082
vt 0.0000 0.7082
vt 0.4922 0.3394
vt 0.4922 0.2769
vt 0.5009 0.2769
vt 0.5009 0.3394
vt 0.1187 0.3541
vt 0.1780 0.3541
vt 0.1780 0.7082
vt 0.1187 0.7082
vt 0.4834 0.2769
vt 0.4834 0.3394
vt 0.4747 0.3394
vt 0.4747 0.2769
vt 0.9825 0.5386
vt 0.9738 0.5386
vt 0.9738 0.1845
vt 0.9825 0.1845
vt 0.9913 0.5386
vt 0.9825 0.5386
vt 0.9825 0.1845
vt 0.9913 0.1845
vt 0.1187 0.3541
vt 0.0593 0.3541
vt 0.0593 0.0000
vt 0.1187 0.0000
vt 0.5184 0.2769
vt 0.5184 0.3394
vt 0.5097 0.3394
vt 0.5097 0.2769
vt 0.2373 0.3541
vt 0.1780 0.3541
vt 0.1780 0.0000
vt 0.2373 0.0000
vt 0.4922 0.2769
vt 0.4922 0.3394
vt 0.4834 0.3394
vt 0.4834 0.2769
vt 0.9738 0.5386
vt 0.9650 0.5386
vt 0.9650 0.1845
vt 0.9738 0.1845
vt 1.0000 0.3541
vt 0.9913 0.3541
vt 0.9913 0.0000
vt 1.0000 0.0000
vt 0.8162 0.0461
vt 0.7286 0.0461
vt 0.7286 0.0000
vt 0.8162 0.0000
vt 0.4913 0.8155
vt 0.4913 0.7232
vt 0.5788 0.7232
vt 0.5788 0.8155
vt 0.7977 0.7232
vt 0.7977 0.8155
vt 0.7539 0.8155
vt 0.7539 0.7232
vt 0.8162 0.1845
vt 0.8162 0.0923
vt 0.9037 0.0923
vt 0.9037 0.1845
vt 0.8415 0.9539
vt 0.9290 0.9539
vt 0.9290 1.0000
vt 0.8415 1.0000
vt 0.8852 0.8155
vt 0.8852 0.9077
vt 0.8415 0.9077
vt 0.8415 0.8155
vt 0.3249 0.9078
vt 0.2373 0.9078
vt 0.2373 0.8617
vt 0.3249 0.8617
vt 0.4913 0.7232
vt 0.4913 0.6310
vt 0.5788 0.6310
vt 0.5788 0.7232
vt 0.7724 0.0923
vt 0.7724 0.1845
vt 0.7286 0.1845
vt 0.7286 0.0923
vt 0.6664 0.9077
vt 0.6664 0.8155
vt 0.7539 0.8155
vt 0.7539 0.9077
vt 0.9913 0.1384
vt 0.9037 0.1384
vt 0.9037 0.0923
vt 0.9913 0.0923
vt 0.8599 0.0000
vt 0.8599 0.0923
vt 0.8162 0.0923
vt 0.8162 0.0000
vt 0.1342 0.8005
vt 0.1342 0.8927
vt 0.0905 0.8927
vt 0.0905 0.8005
vt 0.0000 0.8927
vt 0.0000 0.8005
vt 0.0875 0.8005
vt 0.0875 0.8927
vt 0.0438 0.7082
vt 0.0438 0.8005
vt 0.0000 0.8005
vt 0.0000 0.7082
vt 0.5788 0.9077
vt 0.5788 0.8155
vt 0.6664 0.8155
vt 0.6664 0.9077
vt 0.7539 0.9539
vt 0.8415 0.9539
vt 0.8415 1.0000
vt 0.7539 1.0000
vt 0.6226 0.9077
vt 0.6226 1.0000
vt 0.5788 1.0000
vt 0.5788 0.9077
vt 0.1780 0.7544
vt 0.0905 0.7544
vt 0.0905 0.7082
vt 0.1780 0.7082
vt 0.5788 0.8155
vt 0.5788 0.7232
vt 0.6664 0.7232
vt 0.6664 0.8155
vt 0.8794 0.2157
vt 0.8794 0.3079
vt 0.8356 0.3079
vt 0.8356 0.2157
vt 0.7539 0.9077
vt 0.7539 0.8155
vt 0.8415 0.8155
vt 0.8415 0.9077
vt 0.9475 0.0923
vt 0.9475 0.0000
vt 0.9913 0.0000
vt 0.9913 0.0923
vt 0.8852 0.7232
vt 0.8852 0.8155
vt 0.8415 0.7232
vt 0.7043 0.4002
vt 0.7043 0.4925
vt 0.6606 0.4925
vt 0.6606 0.4002
vt 0.7539 0.7232
vt 0.7539 0.8155
vt 0.6664 0.8155
vt 0.6664 0.7232
vt 0.3687 0.9539
vt 0.3687 0.8617
vt 0.4124 0.8617
vt 0.4124 0.9539
vt 0.7481 0.5848
vt 0.6606 0.5848
vt 0.6606 0.4925
vt 0.7481 0.4925
vt 0.0438 0.9850
vt 0.0438 0.8927
vt 0.0875 0.8927
vt 0.0875 0.9850
vt 0.7919 0.2157
vt 0.7919 0.3079
vt 0.7481 0.3079
vt 0.7481 0.2157
vt 0.7919 0.4002
vt 0.7919 0.4925
vt 0.7481 0.4925
vt 0.7481 0.4002
vt 0.5788 0.7232
vt 0.5788 0.6310
vt 0.6664 0.6310
vt 0.6664 0.7232
vt 0.7977 0.6310
vt 0.7977 0.7232
vt 0.7539 0.7232
vt 0.7539 0.6310
vt 0.7481 0.5848
vt 0.7481 0.4925
vt 0.8356 0.4925
vt 0.8356 0.5848
vt 0.0905 0.9389
vt 0.1780 0.9389
vt 0.1780 0.9850
vt 0.0905 0.9850
vt 0.8794 0.3079
vt 0.8794 0.4002
vt 0.8356 0.4002
vt 0.8356 0.3079
vt 0.8794 0.4925
vt 0.8794 0.5847
vt 0.8356 0.5847
vt 0.8356 0.4925
vt 0.6606 0.2157
vt 0.7481 0.2157
vt 0.7481 0.3079
vt 0.6606 0.3079
vt 0.3687 0.8617
vt 0.3687 0.7694
vt 0.4124 0.7694
vt 0.4124 0.8617
vt 0.6664 0.7232
vt 0.6664 0.6310
vt 0.7539 0.6310
vt 0.7539 0.7232
vt 0.8356 0.4463
vt 0.9232 0.4463
vt 0.9232 0.4925
vt 0.8356 0.4925
vt 0.5350 0.9077
vt 0.5350 1.0000
vt 0.4913 1.0000
vt 0.4913 0.9077
vt 0.7919 0.3079
vt 0.7919 0.4002
vt 0.7481 0.4002
vt 0.7481 0.3079
vt 0.4913 0.9077
vt 0.4913 0.8155
vt 0.5788 0.8155
vt 0.5788 0.9077
vt 0.7043 0.3079
vt 0.7043 0.4002
vt 0.6606 0.4002
vt 0.6606 0.3079
vt 0.2373 0.8617
vt 0.2373 0.7694
vt 0.3249 0.7694
vt 0.3249 0.8617
vt 0.7101 1.0000
vt 0.7101 0.9077
vt 0.7539 0.9077
vt 0.7539 1.0000
vt 0.8852 0.6310
vt 0.8852 0.7232
vt 0.8415 0.7232
vt 0.8415 0.6310
vt 0.9232 0.3079
vt 0.9232 0.4002
vt 0.0905 0.8927
vt 0.1780 0.8927
vt 0.8415 0.6310
vt 0.8415 0.7232
vt 0.8356 0.4002
vt 0.8356 0.2157
vt 0.8356 0.3079
vt 0.0000 0.9850
vt 0.0000 0.8927
vt 0.3249 0.9539
vt 0.3249 0.8617
vt 0.7481 0.4002
vt 0.7481 0.4925
vt 0.9290 0.7232
vt 0.9290 0.8155
vt 0.9037 0.0923
vt 0.9037 0.0000
vt 0.9232 0.2157
vt 0.9232 0.3079
vt 0.1780 0.8005
vt 0.0905 0.8005
vt 0.5788 0.9077
vt 0.5788 1.0000
vt 0.8356 0.4002
vt 0.9232 0.4002
vt 0.3249 0.8617
vt 0.3249 0.7694
vt 0.9232 0.4925
vt 0.9232 0.5847
vt 0.9290 0.6310
vt 0.9290 0.7232
vt 0.6664 1.0000
vt 0.6664 0.9077
vt 0.7481 0.3079
vt 0.7481 0.4002
vt 0.8356 0.3079
vt 0.8356 0.4002
vt 0.6664 0.9077
vt 0.6664 1.0000
vt 0.7539 0.9077
vt 0.8415 0.9077
vt 0.0875 0.7082
vt 0.1780 0.8005
vt 0.1780 0.8927
vt 0.9037 0.0000
vt 0.9037 0.0923
vt 0.9913 0.1845
vt 0.9037 0.1845
vt 0.8162 0.0923
vt 0.8162 0.1845
vt 0.3249 0.9539
vt 0.2373 0.9539
vt 0.9290 0.8155
vt 0.9290 0.9077
vt 0.8415 0.9077
vt 0.9290 0.9077
vt 0.8415 0.7232
vt 0.8415 0.8155
vt 0.8162 0.0923
vt 0.7286 0.0923
vt 0.9913 0.8927
vt 0.9825 0.8927
vt 0.9825 0.8927
vt 0.9738 0.8927
vt 0.1187 0.0000
vt 0.1780 0.0000
vt 0.0000 0.0000
vt 0.0593 0.0000
vt 1.0000 0.7082
vt 0.9913 0.7082
vt 0.9738 0.8927
vt 0.9650 0.8927
vt 0.2373 0.7082
vt 0.1780 0.7082
vt 0.1187 0.7082
vt 0.0593 0.7082
vt 0.9377 0.9851
vt 0.9290 0.9851
vt 0.9290 0.6310
vt 0.9377 0.6310
vt 0.9407 0.5698
vt 0.9319 0.5698
vt 0.9319 0.2157
vt 0.9407 0.2157
vt 0.4154 0.3541
vt 0.3560 0.3541
vt 0.3560 0.0000
vt 0.4154 0.0000
vt 0.3560 0.3541
vt 0.2967 0.3541
vt 0.2967 0.0000
vt 0.3560 0.0000
vn 0.0000 0.0000 1.0000
vn -1.0000 0.0000 0.0000
vn -0.0000 0.0000 -1.0000
vn 1.0000 0.0000 0.0000
vn -0.0000 -1.0000 -0.0000
vn 0.0000 1.0000 0.0000
usemtl EuropelatteTex
s off
f 1/1/1 2/2/1 4/3/1 3/4/1
f 3/5/2 4/6/2 8/7/2 7/8/2
f 7/9/3 8/10/3 6/11/3 5/12/3
f 5/13/4 6/14/4 2/15/4 1/16/4
f 3/17/5 7/18/5 5/19/5 1/20/5
f 8/21/6 4/22/6 2/23/6 6/24/6
f 9/25/1 10/26/1 12/27/1 11/28/1
f 11/29/2 12/30/2 16/31/2 15/32/2
f 15/33/3 16/34/3 14/35/3 13/36/3
f 13/37/4 14/38/4 10/39/4 9/40/4
f 11/41/5 15/42/5 13/43/5 9/44/5
f 16/45/6 12/46/6 10/47/6 14/48/6
f 17/49/1 18/50/1 20/51/1 19/52/1
f 19/53/2 20/54/2 24/55/2 23/56/2
f 23/57/3 24/58/3 22/59/3 21/60/3
f 21/61/4 22/62/4 18/63/4 17/64/4
f 19/65/5 23/66/5 21/67/5 17/68/5
f 24/69/6 20/70/6 18/71/6 22/72/6
f 25/73/1 26/74/1 28/75/1 27/76/1
f 27/77/2 28/78/2 32/79/2 31/80/2
f 31/81/3 32/82/3 30/83/3 29/84/3
f 29/85/4 30/86/4 26/87/4 25/88/4
f 27/89/5 31/90/5 29/91/5 25/92/5
f 32/93/6 28/94/6 26/95/6 30/96/6
f 33/97/1 34/98/1 36/99/1 35/100/1
f 35/101/2 36/102/2 40/103/2 39/104/2
f 39/105/3 40/106/3 38/107/3 37/108/3
f 37/109/4 38/110/4 34/111/4 33/112/4
f 35/113/5 39/114/5 37/115/5 33/116/5
f 40/117/6 36/118/6 34/119/6 38/120/6
f 41/121/1 42/122/1 44/123/1 43/124/1
f 43/125/2 44/126/2 48/127/2 47/128/2
f 47/129/3 48/130/3 46/131/3 45/132/3
f 45/133/4 46/134/4 42/135/4 41/136/4
f 43/137/5 47/138/5 45/139/5 41/140/5
f 48/141/6 44/142/6 42/143/6 46/144/6
f 49/145/1 50/146/1 52/147/1 51/148/1
f 51/149/2 52/150/2 56/151/2 55/152/2
f 55/153/3 56/154/3 54/155/3 53/156/3
f 53/157/4 54/158/4 50/159/4 49/160/4
f 51/161/5 55/162/5 53/163/5 49/164/5
f 56/165/6 52/166/6 50/167/6 54/168/6
f 57/169/1 58/170/1 60/171/1 59/172/1
f 59/173/2 60/174/2 64/175/2 63/176/2
f 63/177/3 64/178/3 62/179/3 61/180/3
f 61/181/4 62/182/4 58/183/4 57/184/4
f 59/185/5 63/186/5 61/187/5 57/188/5
f 64/189/6 60/190/6 58/191/6 62/192/6
f 65/193/1 66/194/1 68/195/1 67/196/1
f 67/197/2 68/198/2 72/199/2 71/200/2
f 71/201/3 72/202/3 70/203/3 69/204/3
f 69/205/4 70/206/4 66/207/4 65/208/4
f 67/209/5 71/210/5 69/211/5 65/212/5
f 72/213/6 68/214/6 66/215/6 70/216/6
f 208/217/1 205/218/1 76/219/1 75/220/1
f 75/221/2 76/222/2 80/223/2 79/224/2
f 207/225/3 206/226/3 78/227/3 77/228/3
f 77/229/4 78/230/4 74/231/4 73/232/4
f 201/233/5 207/234/5 77/235/5 73/236/5
f 206/237/6 202/238/6 74/239/6 78/240/6
f 193/241/1 194/242/1 84/243/1 83/244/1
f 83/245/2 84/246/2 88/247/2 87/248/2
f 195/249/3 196/250/3 86/251/3 85/252/3
f 85/253/4 86/254/4 82/255/4 81/256/4
f 193/257/5 195/258/5 85/259/5 81/260/5
f 196/261/6 194/262/6 82/263/6 86/264/6
f 197/265/1 198/266/1 92/267/1 91/268/1
f 91/269/2 92/270/2 96/271/2 95/272/2
f 199/273/3 200/274/3 94/275/3 93/276/3
f 93/277/4 94/278/4 90/279/4 89/280/4
f 197/281/5 199/282/5 93/283/5 89/284/5
f 200/285/6 198/286/6 90/287/6 94/288/6
f 189/289/2 190/290/2 100/291/2 99/292/2
f 99/293/3 100/294/3 104/295/3 103/296/3
f 191/297/4 192/298/4 102/299/4 101/300/4
f 101/301/1 102/302/1 98/303/1 97/304/1
f 189/305/5 191/306/5 101/307/5 97/308/5
f 192/309/6 190/310/6 98/311/6 102/312/6
f 185/313/2 186/314/2 108/315/2 107/316/2
f 107/317/3 108/318/3 112/319/3 111/320/3
f 187/321/4 188/322/4 110/323/4 109/324/4
f 109/325/1 110/326/1 106/327/1 105/328/1
f 185/329/5 187/330/5 109/331/5 105/332/5
f 188/333/6 186/334/6 106/335/6 110/336/6
f 181/337/2 182/338/2 116/339/2 115/340/2
f 115/341/3 116/342/3 120/343/3 119/344/3
f 183/345/4 184/346/4 118/347/4 117/348/4
f 117/349/1 118/350/1 114/351/1 113/352/1
f 181/353/5 183/354/5 117/355/5 113/356/5
f 184/357/6 182/358/6 114/359/6 118/360/6
f 169/361/2 170/362/2 124/363/2 123/364/2
f 123/365/3 124/366/3 128/367/3 127/368/3
f 171/369/4 172/370/4 126/371/4 125/372/4
f 125/373/1 126/374/1 122/375/1 121/376/1
f 169/377/5 171/378/5 125/379/5 121/380/5
f 172/381/6 170/382/6 122/375/6 126/383/6
f 165/384/2 166/385/2 132/386/2 131/387/2
f 131/388/3 132/389/3 136/390/3 135/391/3
f 167/392/4 168/393/4 134/394/4 133/395/4
f 133/396/1 134/397/1 130/398/1 129/399/1
f 165/400/5 167/401/5 133/402/5 129/403/5
f 168/404/6 166/405/6 130/406/6 134/407/6
f 161/408/2 162/409/2 140/410/2 139/411/2
f 139/412/3 140/413/3 144/414/3 143/415/3
f 163/416/4 164/417/4 142/418/4 141/419/4
f 141/420/1 142/421/1 138/422/1 137/423/1
f 161/424/5 163/425/5 141/426/5 137/427/5
f 164/428/6 162/429/6 138/430/6 142/431/6
f 173/432/2 174/433/2 148/434/2 147/435/2
f 147/436/3 148/437/3 152/438/3 151/439/3
f 175/440/4 176/441/4 150/442/4 149/443/4
f 149/444/1 150/445/1 146/446/1 145/447/1
f 173/448/5 175/449/5 149/450/5 145/451/5
f 176/452/6 174/453/6 146/454/6 150/455/6
f 177/456/2 178/457/2 156/458/2 155/459/2
f 155/460/3 156/461/3 160/462/3 159/463/3
f 179/464/4 180/465/4 158/466/4 157/467/4
f 157/468/1 158/469/1 154/470/1 153/471/1
f 177/472/5 179/473/5 157/474/5 153/475/5
f 180/476/6 178/477/6 154/478/6 158/479/6
f 144/480/6 140/481/6 162/429/6 164/428/6
f 139/482/5 143/483/5 163/425/5 161/424/5
f 143/484/4 144/485/4 164/417/4 163/416/4
f 137/486/2 138/422/2 162/409/2 161/408/2
f 136/487/6 132/488/6 166/405/6 168/404/6
f 131/489/5 135/490/5 167/401/5 165/400/5
f 135/491/4 136/492/4 168/393/4 167/392/4
f 129/493/2 130/494/2 166/385/2 165/384/2
f 128/495/6 124/496/6 170/382/6 172/381/6
f 123/497/5 127/498/5 171/378/5 169/377/5
f 127/499/4 128/500/4 172/370/4 171/369/4
f 121/501/2 122/502/2 170/362/2 169/361/2
f 152/503/6 148/504/6 174/453/6 176/452/6
f 147/505/5 151/506/5 175/449/5 173/448/5
f 151/507/4 152/508/4 176/441/4 175/440/4
f 145/509/2 146/510/2 174/433/2 173/432/2
f 160/511/6 156/512/6 178/477/6 180/476/6
f 155/513/5 159/514/5 179/473/5 177/472/5
f 159/515/4 160/516/4 180/465/4 179/464/4
f 153/517/2 154/518/2 178/457/2 177/456/2
f 120/519/6 116/520/6 182/358/6 184/357/6
f 115/521/5 119/522/5 183/354/5 181/353/5
f 119/523/4 120/343/4 184/346/4 183/345/4
f 113/524/2 114/525/2 182/338/2 181/337/2
f 112/526/6 108/527/6 186/334/6 188/333/6
f 107/528/5 111/529/5 187/330/5 185/329/5
f 111/530/4 112/531/4 188/322/4 187/321/4
f 105/532/2 106/533/2 186/314/2 185/313/2
f 104/534/6 100/535/6 190/310/6 192/309/6
f 99/536/5 103/537/5 191/306/5 189/305/5
f 103/538/4 104/539/4 192/298/4 191/297/4
f 97/540/2 98/541/2 190/290/2 189/289/2
f 88/542/6 84/543/6 194/262/6 196/261/6
f 83/544/5 87/545/5 195/258/5 193/257/5
f 87/546/3 88/547/3 196/250/3 195/249/3
f 81/548/1 82/549/1 194/242/1 193/241/1
f 96/550/6 92/551/6 198/286/6 200/285/6
f 91/552/5 95/553/5 199/282/5 197/281/5
f 95/554/3 96/555/3 200/274/3 199/273/3
f 89/556/1 90/557/1 198/266/1 197/265/1
f 80/558/6 76/559/6 205/560/6 204/561/6
f 75/562/5 79/563/5 203/564/5 208/565/5
f 79/566/3 80/567/3 204/568/3 203/569/3
f 73/570/1 74/571/1 202/572/1 201/573/1
