# Blender v2.78 (sub 0) OBJ File: 'SateliteDish.blend'
# www.blender.org
mtllib SateliteDish.mtl
o SatteliteDish_Cube.007
v -0.139091 -1.076695 0.395827
v -0.139091 -0.980302 0.395827
v -0.139091 -1.076695 -0.176989
v -0.139091 -0.980302 -0.176989
v 0.430909 -1.076695 0.395827
v 0.429432 -0.980302 0.395827
v 0.430909 -1.076695 -0.176989
v 0.429432 -0.980302 -0.176989
v -0.055839 -0.066537 0.251846
v -0.055839 0.161728 0.251846
v -0.055839 -0.066537 -0.063756
v -0.055839 0.161728 -0.063756
v 0.167866 -0.066537 0.251846
v -0.037526 0.161728 0.251846
v 0.167866 -0.066537 -0.063756
v -0.037526 0.161728 -0.063756
v 0.018204 -1.034753 0.029234
v 0.018204 -0.060870 0.029234
v 0.066472 -1.034753 0.049227
v 0.066472 -0.060870 0.049227
v 0.086465 -1.034753 0.097495
v 0.086465 -0.060870 0.097495
v 0.066472 -1.034753 0.145764
v 0.066472 -0.060870 0.145764
v 0.018204 -1.034753 0.165757
v 0.018204 -0.060870 0.165757
v -0.030065 -1.034753 0.145764
v -0.030065 -0.060870 0.145764
v -0.050058 -1.034753 0.097495
v -0.050058 -0.060870 0.097495
v -0.030065 -1.034753 0.049227
v -0.030065 -0.060870 0.049227
v -0.055839 0.025934 0.251846
v -0.055839 0.025934 -0.063756
v 0.041070 0.025934 -0.063756
v 0.041070 0.025934 0.251846
v 0.585864 -0.324579 0.051064
v 1.224818 0.351097 0.051064
v 0.615163 -0.329692 0.064010
v 1.247541 0.329638 0.064010
v 0.624575 -0.338581 0.095264
v 1.256953 0.320749 0.095264
v 0.615163 -0.329692 0.126519
v 1.247541 0.329638 0.126519
v 0.585864 -0.324579 0.139465
v 1.224818 0.351097 0.139465
v 0.556250 -0.311312 0.126519
v 1.202096 0.372557 0.126519
v 0.546838 -0.302423 0.095264
v 1.192684 0.381446 0.095264
v 0.556250 -0.311312 0.064010
v 1.202095 0.372557 0.064010
v 1.341107 0.366303 0.000026
v 1.027927 0.412445 0.000026
v 1.346248 0.401200 0.007043
v 1.033069 0.447342 0.007042
v 1.350607 0.430784 0.027023
v 1.037428 0.476926 0.027023
v 1.353519 0.450551 0.056927
v 1.040340 0.496694 0.056927
v 1.354542 0.457493 0.092201
v 1.041363 0.503635 0.092201
v 1.353519 0.450551 0.127474
v 1.040340 0.496694 0.127474
v 1.350607 0.430784 0.157378
v 1.037428 0.476926 0.157378
v 1.346248 0.401200 0.177359
v 1.033069 0.447342 0.177359
v 1.341107 0.366303 0.184375
v 1.027927 0.412445 0.184375
v 1.335965 0.331406 0.177359
v 1.022786 0.377548 0.177359
v 1.331606 0.301822 0.157378
v 1.018427 0.347964 0.157378
v 1.328694 0.282054 0.127474
v 1.015514 0.328197 0.127474
v 1.327671 0.275113 0.092201
v 1.014492 0.321255 0.092201
v 1.328694 0.282054 0.056927
v 1.015514 0.328197 0.056927
v 1.331606 0.301822 0.027023
v 1.018427 0.347964 0.027023
v 1.335965 0.331406 0.007043
v 1.022786 0.377548 0.007042
v 0.473249 0.478070 -0.847045
v 0.160450 0.391875 -0.630324
v -0.049652 0.338042 -0.305977
v -0.105431 0.326056 -0.118429
v 0.654265 -0.143324 -0.562260
v 0.298994 -0.083720 -0.412359
v 0.025328 0.080652 -0.188016
v -0.067207 0.194840 -0.058292
v -0.125069 0.324768 0.076615
v 0.725943 -0.389379 0.096769
v 0.353853 -0.272042 0.092041
v 0.055018 -0.021267 0.084963
v -0.052071 0.142882 0.080871
v 0.646294 -0.115959 0.743992
v 0.292892 -0.062775 0.587404
v 0.022026 0.091987 0.353052
v -0.068890 0.200618 0.217541
v 0.461975 0.516770 1.000275
v 0.151821 0.421495 0.783554
v -0.054321 0.354072 0.459207
v -0.107812 0.334228 0.271659
v 0.280959 1.138164 0.715490
v 0.013278 0.897089 0.565589
v -0.129301 0.611462 0.341246
v -0.146036 0.465444 0.211523
v 0.209282 1.384219 0.056461
v -0.041582 1.085411 0.061190
v -0.158990 0.713381 0.068267
v -0.161171 0.517402 0.072359
v 0.288931 1.110799 -0.590762
v 0.019379 0.876145 -0.434173
v -0.125999 0.600127 -0.199821
v -0.144352 0.459666 -0.064311
v 0.494381 0.484981 -0.813794
v 0.186533 0.400136 -0.601146
v -0.015594 0.348377 -0.287724
v -0.068009 0.337156 -0.109696
v 0.668881 -0.114043 -0.539261
v 0.319359 -0.055829 -0.392177
v 0.055808 0.103268 -0.175390
v -0.031496 0.211815 -0.052252
v -0.086665 0.335955 0.076615
v 0.737979 -0.351240 0.096044
v 0.371954 -0.236379 0.091404
v 0.084082 0.006212 0.084566
v -0.017038 0.162183 0.080680
v 0.661197 -0.087663 0.719968
v 0.313510 -0.035749 0.566322
v 0.052664 0.114062 0.339864
v -0.033104 0.217334 0.211231
v 0.483514 0.522289 0.967024
v 0.178261 0.428534 0.754376
v -0.020041 0.363645 0.440954
v -0.070283 0.344962 0.262926
v 0.309014 1.121313 0.692492
v 0.045435 0.884499 0.545407
v -0.091443 0.608754 0.328621
v -0.106795 0.470302 0.205483
v 0.239917 1.358510 0.057186
v -0.007160 1.065048 0.061826
v -0.119716 0.705810 0.068664
v -0.121253 0.519934 0.072550
v 0.316698 1.094933 -0.566737
v 0.051285 0.864419 -0.413092
v -0.088299 0.597960 -0.186633
v -0.105188 0.464783 -0.058001
vt 0.6014 0.7868
vt 0.6292 0.7868
vt 0.6292 0.9529
vt 0.6014 0.9529
vt 0.1580 0.7885
vt 0.1859 0.7885
vt 0.1859 0.9534
vt 0.1580 0.9538
vt 0.6014 0.9529
vt 0.5735 0.9529
vt 0.5735 0.7868
vt 0.6014 0.7868
vt 0.1580 0.9538
vt 0.1300 0.9534
vt 0.1300 0.7885
vt 0.1580 0.7885
vt 0.4102 0.7868
vt 0.5735 0.7869
vt 0.5735 0.9530
vt 0.4102 0.9529
vt 0.7817 0.7869
vt 0.9452 0.7868
vt 0.9452 0.9529
vt 0.7817 0.9530
vt 0.0392 0.8800
vt 0.0000 0.8800
vt 0.0000 0.7885
vt 0.0392 0.7885
vt 0.0651 0.9194
vt 0.0651 0.8801
vt 0.0704 0.8801
vt 0.0932 0.9194
vt 0.6737 0.9845
vt 0.6329 0.9844
vt 0.6329 0.8929
vt 0.6737 0.8929
vt 0.0368 0.9194
vt 0.0596 0.8800
vt 0.0649 0.8800
vt 0.0649 0.9194
vt 0.1300 0.8801
vt 0.0659 0.8800
vt 0.0659 0.7885
vt 0.1300 0.7885
vt 0.2093 0.8800
vt 0.2041 0.8800
vt 0.2041 0.7885
vt 0.2093 0.7885
vt 0.3762 0.4233
vt 0.3762 0.7057
vt 0.3622 0.7057
vt 0.3622 0.4233
vt 0.9966 0.4083
vt 0.9966 0.6901
vt 0.9826 0.6898
vt 0.9826 0.4079
vt 0.9686 0.6901
vt 0.9686 0.4083
vt 0.3622 0.9881
vt 0.3622 0.7057
vt 0.3762 0.7057
vt 0.3762 0.9881
vt 0.3902 0.7057
vt 0.3902 0.9881
vt 0.9966 0.6901
vt 0.9966 0.9714
vt 0.9826 0.9719
vt 0.9826 0.6907
vt 0.9339 0.3911
vt 0.9232 0.4018
vt 0.9082 0.4017
vt 0.8975 0.3909
vt 0.8975 0.3758
vt 0.9082 0.3651
vt 0.9232 0.3652
vt 0.9339 0.3760
vt 0.9686 0.9714
vt 0.9686 0.6901
vt 0.3902 0.4233
vt 0.3902 0.7057
vt 0.9595 0.3651
vt 0.9701 0.3757
vt 0.9701 0.3909
vt 0.9595 0.4017
vt 0.9445 0.4018
vt 0.9339 0.3912
vt 0.9339 0.3760
vt 0.9445 0.3653
vt 0.0000 0.9462
vt 0.0649 0.9462
vt 0.7135 0.9845
vt 0.6737 0.9844
vt 0.7135 0.8930
vt 0.0651 0.9463
vt 0.1300 0.9463
vt 0.0659 0.8800
vt 0.0659 0.7885
vt 0.3995 0.4264
vt 0.3993 0.6961
vt 0.3902 0.6961
vt 0.3923 0.4311
vt 0.2041 0.7913
vt 0.2041 0.9704
vt 0.1950 0.9677
vt 0.1950 0.7885
vt 0.1859 0.9704
vt 0.1859 0.7912
vt 0.3923 0.9610
vt 0.3902 0.6961
vt 0.3993 0.6961
vt 0.3995 0.9657
vt 0.4083 0.6961
vt 0.4083 0.9688
vt 0.9634 0.7868
vt 0.9634 0.9670
vt 0.9543 0.9699
vt 0.9543 0.7896
vt 0.8318 0.3800
vt 0.8399 0.3788
vt 0.8456 0.3847
vt 0.8456 0.3942
vt 0.8399 0.4019
vt 0.8318 0.4031
vt 0.8260 0.3972
vt 0.8260 0.3876
vt 0.9452 0.9671
vt 0.9452 0.7868
vt 0.4083 0.4233
vt 0.4083 0.6961
vt 0.8108 0.3788
vt 0.8202 0.3795
vt 0.8260 0.3871
vt 0.8260 0.3967
vt 0.8191 0.4030
vt 0.8093 0.4024
vt 0.8034 0.3949
vt 0.8034 0.3853
vt 0.3080 0.9081
vt 0.3080 0.9999
vt 0.2978 0.9999
vt 0.2978 0.9081
vt 0.2891 0.9999
vt 0.2891 0.9081
vt 0.7514 0.8930
vt 0.7514 0.9848
vt 0.7427 0.9847
vt 0.7427 0.8929
vt 0.7324 0.9847
vt 0.7324 0.8929
vt 0.7222 0.9847
vt 0.7222 0.8929
vt 0.7135 0.9848
vt 0.7135 0.8930
vt 0.2513 0.9999
vt 0.2513 0.9081
vt 0.2600 0.9081
vt 0.2600 0.9999
vt 0.2702 0.9081
vt 0.2702 0.9999
vt 0.2804 0.9081
vt 0.2804 0.9999
vt 0.2891 0.9081
vt 0.2891 0.9999
vt 0.2135 0.9999
vt 0.2135 0.9081
vt 0.2222 0.9082
vt 0.2222 1.0000
vt 0.2324 0.9082
vt 0.2324 1.0000
vt 0.2427 0.9082
vt 0.2427 1.0000
vt 0.2513 0.9081
vt 0.2513 0.9999
vt 0.0957 0.9986
vt 0.0856 0.9987
vt 0.0762 0.9949
vt 0.0690 0.9876
vt 0.0651 0.9780
vt 0.0651 0.9676
vt 0.0690 0.9579
vt 0.0762 0.9504
vt 0.0856 0.9464
vt 0.0957 0.9463
vt 0.1051 0.9501
vt 0.1123 0.9574
vt 0.1161 0.9670
vt 0.1161 0.9774
vt 0.1123 0.9871
vt 0.1051 0.9946
vt 0.3269 0.9081
vt 0.3269 0.9999
vt 0.3182 0.9999
vt 0.3182 0.9081
vt 0.0206 0.9462
vt 0.0308 0.9463
vt 0.0402 0.9504
vt 0.0474 0.9578
vt 0.0513 0.9675
vt 0.0513 0.9779
vt 0.0474 0.9875
vt 0.0402 0.9948
vt 0.0308 0.9987
vt 0.0206 0.9986
vt 0.0111 0.9946
vt 0.0039 0.9871
vt 0.0000 0.9775
vt 0.0000 0.9670
vt 0.0039 0.9575
vt 0.0111 0.9501
vt 0.8758 0.7868
vt 0.7818 0.7415
vt 0.7817 0.5976
vt 0.8756 0.5988
vt 0.2452 0.3353
vt 0.2052 0.3516
vt 0.2053 0.2971
vt 0.5221 0.5965
vt 0.6191 0.5974
vt 0.6329 0.6763
vt 0.5477 0.7423
vt 0.4102 0.5963
vt 0.4436 0.7868
vt 0.3162 0.2929
vt 0.2837 0.3699
vt 0.2618 0.2960
vt 0.1652 0.3353
vt 0.5477 0.4524
vt 0.6329 0.5194
vt 0.2052 0.4018
vt 0.8974 0.1914
vt 0.8034 0.1898
vt 0.8035 0.0433
vt 0.8975 0.0000
vt 0.1487 0.2960
vt 0.4436 0.4079
vt 0.1267 0.3699
vt 0.0000 0.2809
vt 0.0942 0.2929
vt 0.0600 0.4233
vt 0.1652 0.2568
vt 0.8975 0.3788
vt 0.8035 0.3332
vt 0.0601 0.1386
vt 0.1268 0.2158
vt 0.2053 0.2405
vt 0.2050 0.0000
vt 0.2052 0.0796
vt 0.0155 0.0770
vt 0.2053 0.1839
vt 0.2453 0.2568
vt 0.3502 0.1386
vt 0.2837 0.2158
vt 0.3944 0.0770
vt 0.4102 0.2809
vt 0.7818 0.4515
vt 0.8758 0.4079
vt 0.3500 0.4233
vt 0.8977 0.3651
vt 0.8975 0.1845
vt 0.9903 0.1829
vt 0.9904 0.3204
vt 0.5685 0.3261
vt 0.6067 0.2900
vt 0.6067 0.3416
vt 0.1095 0.6066
vt 0.1324 0.4668
vt 0.2135 0.5306
vt 0.2012 0.6057
vt 0.0000 0.6069
vt 0.0301 0.4233
vt 0.5010 0.2854
vt 0.5526 0.2888
vt 0.5320 0.3584
vt 0.6449 0.3261
vt 0.1324 0.7448
vt 0.2135 0.6800
vt 0.6067 0.3886
vt 0.8758 0.5919
vt 0.8759 0.4079
vt 0.9686 0.4507
vt 0.9685 0.5908
vt 0.6607 0.2888
vt 0.0301 0.7885
vt 0.6815 0.3584
vt 0.8034 0.2723
vt 0.7459 0.4079
vt 0.7124 0.2854
vt 0.6449 0.2515
vt 0.8759 0.7731
vt 0.9686 0.7287
vt 0.7458 0.1366
vt 0.6814 0.2125
vt 0.6067 0.2361
vt 0.6068 0.0000
vt 0.7895 0.0738
vt 0.6067 0.0804
vt 0.6067 0.1823
vt 0.5685 0.2515
vt 0.4677 0.1366
vt 0.5320 0.2125
vt 0.4242 0.0738
vt 0.4102 0.2723
vt 0.8977 0.0000
vt 0.9904 0.0425
vt 0.4678 0.4079
vt 0.7817 0.5525
vt 0.7817 0.7534
vt 0.7722 0.7509
vt 0.7722 0.5572
vt 0.6372 0.4079
vt 0.6329 0.4179
vt 0.3622 0.7637
vt 0.2177 0.9081
vt 0.2135 0.8982
vt 0.3528 0.7589
vt 0.3622 0.5628
vt 0.3528 0.5653
vt 0.2177 0.4233
vt 0.2135 0.4308
vt 0.9904 0.1930
vt 0.9904 0.0000
vt 1.0000 0.0053
vt 1.0000 0.1914
vt 0.9904 0.3840
vt 1.0000 0.1945
vt 1.0000 0.3786
vt 0.6372 0.8929
vt 0.6329 0.8854
vn -1.0000 0.0000 0.0000
vn 0.0000 0.0000 -1.0000
vn 0.9999 0.0153 0.0000
vn 0.0000 0.0000 1.0000
vn 0.0000 -1.0000 0.0000
vn 0.0000 1.0000 0.0000
vn 0.8655 0.5009 0.0000
vn 0.3827 0.0000 -0.9239
vn 0.9239 0.0000 -0.3827
vn 0.9239 0.0000 0.3827
vn 0.3827 0.0000 0.9239
vn -0.3827 0.0000 0.9239
vn -0.9239 0.0000 0.3827
vn -0.9239 0.0000 -0.3827
vn -0.3827 0.0000 -0.9239
vn 0.5892 0.8080 0.0000
vn 0.3039 -0.2894 -0.9077
vn 0.6668 -0.6395 -0.3827
vn 0.6668 -0.6395 0.3827
vn 0.3039 -0.2894 0.9077
vn -0.2805 0.2651 0.9225
vn -0.6717 0.6343 0.3827
vn 0.6866 0.7270 -0.0000
vn -0.6717 0.6343 -0.3827
vn -0.2805 0.2651 -0.9225
vn -0.3600 -0.9329 -0.0000
vn 0.0284 0.1930 -0.9808
vn 0.0810 0.5496 -0.8315
vn 0.1212 0.8226 -0.5556
vn 0.1430 0.9703 -0.1951
vn 0.1430 0.9703 0.1951
vn 0.1212 0.8226 0.5556
vn 0.0810 0.5496 0.8315
vn 0.0284 0.1930 0.9808
vn -0.0284 -0.1930 0.9808
vn -0.0810 -0.5496 0.8315
vn -0.1212 -0.8226 0.5556
vn -0.1430 -0.9703 0.1951
vn -0.1430 -0.9703 -0.1951
vn -0.1212 -0.8226 -0.5556
vn -0.9893 0.1458 -0.0000
vn -0.0810 -0.5496 -0.8315
vn -0.0284 -0.1930 -0.9808
vn 0.9893 -0.1458 -0.0000
vn -0.4085 -0.4759 -0.7789
vn -0.9271 -0.3730 -0.0384
vn -0.6252 -0.7510 -0.2124
vn -0.2825 -0.9083 -0.3084
vn -0.8770 -0.3863 -0.2855
vn -0.9275 -0.3713 0.0427
vn -0.6279 -0.7416 0.2360
vn -0.8309 -0.5449 -0.1131
vn -0.4181 -0.4430 0.7931
vn -0.9439 -0.3150 0.0988
vn -0.2865 -0.8947 0.3427
vn -0.8323 -0.5399 0.1256
vn -0.7186 -0.4305 0.5462
vn -0.9666 -0.2371 0.0970
vn -0.6002 0.1821 0.7789
vn -0.8806 -0.3743 0.2907
vn -0.8440 -0.0000 0.5364
vn -0.9823 -0.1833 0.0384
vn -0.7261 0.6145 0.3084
vn -0.9473 -0.1451 0.2855
vn -0.9307 0.2978 0.2124
vn -0.9818 -0.1849 -0.0427
vn -0.9935 0.0134 0.1131
vn -0.9280 0.2884 -0.2360
vn -0.7222 0.6009 -0.3427
vn -0.9654 -0.2412 -0.0988
vn -0.8374 -0.0227 -0.5462
vn -0.5906 0.1492 -0.7931
vn -0.9920 0.0084 -0.1256
vn -0.7119 -0.4532 -0.5364
vn -0.9438 -0.1572 -0.2907
vn -0.9427 -0.3191 -0.0970
vn 0.4073 0.4759 0.7795
vn 0.9273 0.3724 0.0382
vn 0.6268 0.7498 0.2118
vn 0.2812 0.9086 0.3087
vn 0.8783 0.3855 0.2829
vn 0.9278 0.3707 -0.0424
vn 0.6296 0.7405 -0.2353
vn 0.8325 0.5425 0.1120
vn 0.4169 0.4429 -0.7937
vn 0.9441 0.3148 -0.0982
vn 0.2852 0.8950 -0.3430
vn 0.8340 0.5376 -0.1245
vn 0.7199 0.4303 -0.5446
vn 0.9666 0.2374 -0.0965
vn 0.5991 -0.1827 -0.7795
vn 0.8818 0.3735 -0.2880
vn 0.8450 0.0010 -0.5348
vn 0.9822 0.1838 -0.0382
vn 0.7252 -0.6155 -0.3087
vn 0.9479 0.1465 -0.2829
vn 0.9315 -0.2959 -0.2118
vn 0.9817 0.1855 0.0424
vn 0.9937 -0.0106 -0.1120
vn 0.9287 -0.2865 0.2353
vn 0.7212 -0.6018 0.3430
vn 0.9654 0.2414 0.0982
vn 0.8384 0.0236 0.5446
vn 0.5895 -0.1498 0.7937
vn 0.9922 -0.0056 0.1245
vn 0.7133 0.4529 0.5348
vn 0.9444 0.1584 0.2880
vn 0.9429 0.3189 0.0965
vn 0.8440 0.0000 -0.5364
vn 0.9307 -0.2978 -0.2124
vn 0.9280 -0.2884 0.2360
vn 0.8374 0.0227 0.5462
vn 0.7119 0.4532 0.5364
vn 0.6252 0.7510 0.2124
vn 0.6279 0.7416 -0.2360
vn 0.7186 0.4305 -0.5462
usemtl SatteliteDishUV
s off
f 1/1/1 2/2/1 4/3/1 3/4/1
f 3/5/2 4/6/2 8/7/2 7/8/2
f 7/9/3 8/10/3 6/11/3 5/12/3
f 5/13/4 6/14/4 2/15/4 1/16/4
f 3/17/5 7/18/5 5/19/5 1/20/5
f 8/21/6 4/22/6 2/23/6 6/24/6
f 33/25/1 10/26/1 12/27/1 34/28/1
f 34/29/2 12/30/2 16/31/2 35/32/2
f 35/33/7 16/34/7 14/35/7 36/36/7
f 36/37/4 14/38/4 10/39/4 33/40/4
f 11/41/5 15/42/5 13/43/5 9/44/5
f 16/45/6 12/46/6 10/47/6 14/48/6
f 17/49/8 18/50/8 20/51/8 19/52/8
f 19/53/9 20/54/9 22/55/9 21/56/9
f 21/56/10 22/55/10 24/57/10 23/58/10
f 23/59/11 24/60/11 26/61/11 25/62/11
f 25/62/12 26/61/12 28/63/12 27/64/12
f 27/65/13 28/66/13 30/67/13 29/68/13
f 20/69/6 18/70/6 32/71/6 30/72/6 28/73/6 26/74/6 24/75/6 22/76/6
f 29/68/14 30/67/14 32/77/14 31/78/14
f 31/79/15 32/80/15 18/50/15 17/49/15
f 17/81/5 19/82/5 21/83/5 23/84/5 25/85/5 27/86/5 29/87/5 31/88/5
f 13/89/4 36/37/4 33/40/4 9/90/4
f 15/91/16 35/92/16 36/36/16 13/93/16
f 11/94/2 34/29/2 35/32/2 15/95/2
f 9/96/1 33/25/1 34/28/1 11/97/1
f 37/98/17 38/99/17 40/100/17 39/101/17
f 39/102/18 40/103/18 42/104/18 41/105/18
f 41/105/19 42/104/19 44/106/19 43/107/19
f 43/108/20 44/109/20 46/110/20 45/111/20
f 45/111/21 46/110/21 48/112/21 47/113/21
f 47/114/22 48/115/22 50/116/22 49/117/22
f 40/118/23 38/119/23 52/120/23 50/121/23 48/122/23 46/123/23 44/124/23 42/125/23
f 49/117/24 50/116/24 52/126/24 51/127/24
f 51/128/25 52/129/25 38/99/25 37/98/25
f 37/130/26 39/131/26 41/132/26 43/133/26 45/134/26 47/135/26 49/136/26 51/137/26
f 53/138/27 54/139/27 56/140/27 55/141/27
f 55/141/28 56/140/28 58/142/28 57/143/28
f 57/144/29 58/145/29 60/146/29 59/147/29
f 59/147/30 60/146/30 62/148/30 61/149/30
f 61/149/31 62/148/31 64/150/31 63/151/31
f 63/151/32 64/150/32 66/152/32 65/153/32
f 65/154/33 66/155/33 68/156/33 67/157/33
f 67/157/34 68/156/34 70/158/34 69/159/34
f 69/159/35 70/158/35 72/160/35 71/161/35
f 71/161/36 72/160/36 74/162/36 73/163/36
f 73/164/37 74/165/37 76/166/37 75/167/37
f 75/167/38 76/166/38 78/168/38 77/169/38
f 77/169/39 78/168/39 80/170/39 79/171/39
f 79/171/40 80/170/40 82/172/40 81/173/40
f 56/174/41 54/175/41 84/176/41 82/177/41 80/178/41 78/179/41 76/180/41 74/181/41 72/182/41 70/183/41 68/184/41 66/185/41 64/186/41 62/187/41 60/188/41 58/189/41
f 81/190/42 82/191/42 84/192/42 83/193/42
f 83/193/43 84/192/43 54/139/43 53/138/43
f 53/194/44 55/195/44 57/196/44 59/197/44 61/198/44 63/199/44 65/200/44 67/201/44 69/202/44 71/203/44 73/204/44 75/205/44 77/206/44 79/207/44 81/208/44 83/209/44
f 89/210/45 90/211/45 86/212/45 85/213/45
f 92/214/46 97/215/46 93/216/46
f 95/217/47 96/218/47 91/219/47 90/220/47
f 94/221/48 95/217/48 90/220/48 89/222/48
f 87/223/49 91/224/49 92/214/49 88/225/49
f 97/215/50 101/226/50 93/216/50
f 99/227/51 100/228/51 96/218/51 95/217/51
f 91/224/52 96/229/52 97/215/52 92/214/52
f 102/230/53 103/231/53 99/232/53 98/233/53
f 101/226/54 105/234/54 93/216/54
f 98/235/55 99/227/55 95/217/55 94/221/55
f 96/229/56 100/236/56 101/226/56 97/215/56
f 103/237/57 104/238/57 100/236/57 99/239/57
f 105/234/58 109/240/58 93/216/58
f 106/241/59 107/242/59 103/231/59 102/230/59
f 100/236/60 104/238/60 105/234/60 101/226/60
f 107/243/61 108/244/61 104/238/61 103/237/61
f 109/240/62 113/245/62 93/216/62
f 110/246/63 111/247/63 107/243/63 106/248/63
f 104/238/64 108/244/64 109/240/64 105/234/64
f 111/247/65 112/249/65 108/244/65 107/243/65
f 113/245/66 117/250/66 93/216/66
f 108/244/67 112/249/67 113/245/67 109/240/67
f 115/251/68 116/252/68 112/249/68 111/247/68
f 114/253/69 115/251/69 111/247/69 110/246/69
f 117/250/70 88/225/70 93/216/70
f 86/254/71 87/223/71 116/252/71 115/251/71
f 85/213/72 86/212/72 115/255/72 114/256/72
f 112/249/73 116/252/73 117/250/73 113/245/73
f 90/257/74 91/224/74 87/223/74 86/254/74
f 116/252/75 87/223/75 88/225/75 117/250/75
f 88/225/76 92/214/76 93/216/76
f 122/258/77 118/259/77 119/260/77 123/261/77
f 125/262/78 126/263/78 130/264/78
f 128/265/79 123/266/79 124/267/79 129/268/79
f 127/269/80 122/270/80 123/266/80 128/265/80
f 120/271/81 121/272/81 125/262/81 124/273/81
f 130/264/82 126/263/82 134/274/82
f 132/275/83 128/265/83 129/268/83 133/276/83
f 124/273/84 125/262/84 130/264/84 129/277/84
f 135/278/85 131/279/85 132/280/85 136/281/85
f 134/274/86 126/263/86 138/282/86
f 131/283/87 127/269/87 128/265/87 132/275/87
f 129/277/88 130/264/88 134/274/88 133/284/88
f 136/285/89 132/286/89 133/284/89 137/287/89
f 138/282/90 126/263/90 142/288/90
f 139/289/91 135/278/91 136/281/91 140/290/91
f 133/284/92 134/274/92 138/282/92 137/287/92
f 140/291/93 136/285/93 137/287/93 141/292/93
f 142/288/94 126/263/94 146/293/94
f 143/294/95 139/295/95 140/291/95 144/296/95
f 137/287/96 138/282/96 142/288/96 141/292/96
f 144/296/97 140/291/97 141/292/97 145/297/97
f 146/293/98 126/263/98 150/298/98
f 141/292/99 142/288/99 146/293/99 145/297/99
f 148/299/100 144/296/100 145/297/100 149/300/100
f 147/301/101 143/294/101 144/296/101 148/299/101
f 150/298/102 126/263/102 121/272/102
f 119/302/103 148/299/103 149/300/103 120/271/103
f 118/259/104 147/303/104 148/304/104 119/260/104
f 145/297/105 146/293/105 150/298/105 149/300/105
f 123/305/106 119/302/106 120/271/106 124/273/106
f 149/300/107 150/298/107 121/272/107 120/271/107
f 121/272/108 126/263/108 125/262/108
f 89/306/109 85/307/109 118/308/109 122/309/109
f 94/310/110 89/306/110 122/309/110 127/311/110
f 98/312/111 94/313/111 127/314/111 131/315/111
f 102/316/112 98/312/112 131/315/112 135/317/112
f 106/318/113 102/316/113 135/317/113 139/319/113
f 110/320/114 106/321/114 139/322/114 143/323/114
f 114/324/115 110/320/115 143/325/115 147/326/115
f 85/307/116 114/327/116 147/328/116 118/308/116
