# Blender v2.78 (sub 0) OBJ File: ''
# www.blender.org
mtllib Watertower.mtl
o Cylinder
v -0.852255 -0.996509 0.581163
v 0.881739 -0.996509 0.581162
v -0.852255 -1.023831 0.416394
v 0.881739 -1.023831 0.416394
v -0.852254 -1.161277 0.608484
v 0.881739 -1.161277 0.608484
v -0.852254 -1.188599 0.443716
v 0.881739 -1.188599 0.443716
v 0.902017 -1.002532 -0.598482
v -0.872533 -1.002532 -0.598482
v 0.902017 -1.016110 -0.432017
v -0.872533 -1.016110 -0.432017
v 0.902017 -1.168998 -0.612059
v -0.872533 -1.168997 -0.612060
v 0.902017 -1.182575 -0.445594
v -0.872533 -1.182575 -0.445594
v 0.900626 -1.001039 0.592069
v 0.900627 -1.001039 -0.589177
v 0.734462 -1.017905 0.592069
v 0.734463 -1.017904 -0.589177
v 0.917492 -1.167203 0.592069
v 0.917492 -1.167203 -0.589177
v 0.751328 -1.184069 0.592069
v 0.751328 -1.184069 -0.589177
v -0.887367 -1.002214 -0.589177
v -0.887366 -1.002214 0.592069
v -0.720960 -1.016487 -0.589177
v -0.720959 -1.016487 0.592069
v -0.901640 -1.168621 -0.589177
v -0.901639 -1.168621 0.592069
v -0.735233 -1.182894 -0.589177
v -0.735232 -1.182894 0.592069
v -0.914840 -2.472206 -0.654183
v 1.159050 -4.113739 -0.937635
v -0.922995 -2.469463 -0.731110
v 1.150894 -4.110996 -1.014562
v -0.959029 -2.535714 -0.651763
v 1.114860 -4.177247 -0.935214
v -0.967185 -2.532971 -0.728690
v 1.106704 -4.174504 -1.012142
v -0.725281 -1.023630 0.507995
v -0.881383 -2.462031 -0.736773
v -0.802245 -1.025023 0.516150
v -0.958347 -2.463424 -0.728617
v -0.719453 -1.086916 0.552185
v -0.875555 -2.525318 -0.692583
v -0.796417 -1.088309 0.560340
v -0.952519 -2.526711 -0.684427
v -1.030154 -2.400819 -0.853976
v -1.030154 -2.400819 0.860864
v -0.863747 -2.415092 -0.853976
v -0.863747 -2.415092 0.860864
v -1.044427 -2.567226 -0.853975
v -1.044427 -2.567226 0.860865
v -0.878020 -2.581499 -0.853975
v -0.878020 -2.581499 0.860864
v -1.016544 -2.395114 0.808765
v 1.046029 -2.395113 0.808765
v -1.016544 -2.422436 0.643997
v 1.046029 -2.422435 0.643997
v -1.016545 -2.559882 0.836087
v 1.046029 -2.559881 0.836087
v -1.016544 -2.587204 0.671319
v 1.046029 -2.587203 0.671319
v -1.208885 -4.275555 1.100606
v -0.815699 -0.895625 0.495779
v -1.208885 -4.304975 0.936199
v -0.815699 -0.925045 0.331372
v -1.042951 -4.294259 1.103952
v -0.649765 -0.914330 0.499126
v -1.042951 -4.323679 0.939546
v -0.649766 -0.943749 0.334719
v -1.208885 -4.306063 -0.922487
v -0.815699 -0.923105 -0.334835
v -1.208885 -4.277478 -1.087041
v -0.815699 -0.894520 -0.499389
v -1.042951 -4.324784 -0.925739
v -0.649765 -0.941826 -0.338087
v -1.042951 -4.296199 -1.090293
v -0.649765 -0.913241 -0.502641
v -0.759841 -1.104443 -0.425080
v 0.878575 -2.397434 -0.644564
v -0.767997 -1.101700 -0.502007
v 0.870419 -2.394690 -0.721491
v -0.804031 -1.167951 -0.422660
v 0.834385 -2.460942 -0.642143
v -0.812186 -1.165208 -0.499587
v 0.826230 -2.458198 -0.719071
v 1.046029 -2.395113 -0.805874
v -1.016544 -2.395114 -0.805874
v 1.046029 -2.422436 -0.641105
v -1.016544 -2.422435 -0.641106
v 1.046029 -2.559882 -0.833195
v -1.016544 -2.559882 -0.833196
v 1.046029 -2.587204 -0.668427
v -1.016544 -2.587204 -0.668427
v 0.810793 -1.051535 0.487492
v 0.944041 -2.443520 -0.724472
v 0.736423 -1.071396 0.495648
v 0.869671 -2.463380 -0.716316
v 0.831669 -1.111563 0.531682
v 0.964917 -2.503547 -0.680282
v 0.757299 -1.131423 0.539838
v 0.890547 -2.523407 -0.672126
v -0.882378 -2.442196 0.685136
v -1.082766 -4.136468 -1.007406
v -0.959341 -2.443588 0.693292
v -1.159729 -4.137861 -0.999250
v -0.876550 -2.505482 0.729326
v -1.076938 -4.199755 -0.963217
v -0.953513 -2.506875 0.737482
v -1.153901 -4.201148 -0.955061
v 0.944011 -2.424832 0.688253
v 1.131386 -4.141575 -1.013803
v 0.869641 -2.444692 0.696409
v 1.057016 -4.161436 -1.005647
v 0.964887 -2.484859 0.732442
v 1.152262 -4.201603 -0.969613
v 0.890517 -2.504719 0.740598
v 1.077892 -4.221463 -0.961457
v -0.914840 -2.437281 0.720030
v 1.159049 -4.140046 1.027486
v -0.922996 -2.463390 0.647617
v 1.150894 -4.166155 0.955073
v -0.959030 -2.495317 0.745933
v 1.114860 -4.198082 1.053388
v -0.967185 -2.521427 0.673520
v 1.106704 -4.224191 0.980975
v 0.009847 -4.338237 -0.111497
v 0.009847 -0.763213 -0.111497
v 0.092514 -4.338237 -0.077255
v 0.092514 -0.763213 -0.077255
v 0.126756 -4.338237 0.005413
v 0.126756 -0.763213 0.005413
v 0.092514 -4.338237 0.088080
v 0.092514 -0.763213 0.088080
v 0.009847 -4.338237 0.122322
v 0.009847 -0.763213 0.122322
v -0.072821 -4.338237 0.088080
v -0.072821 -0.763213 0.088080
v -0.107063 -4.338237 0.005413
v -0.107063 -0.763213 0.005413
v -0.072821 -4.338237 -0.077255
v -0.072821 -0.763213 -0.077255
v 1.021554 -2.399644 0.860864
v 1.021555 -2.399643 -0.853976
v 0.855390 -2.416509 0.860864
v 0.855390 -2.416509 -0.853976
v 1.038420 -2.565808 0.860864
v 1.038421 -2.565808 -0.853976
v 0.872256 -2.582674 0.860864
v 0.872256 -2.582673 -0.853976
v -0.768731 -1.097682 0.486597
v 0.878575 -2.384375 0.720244
v -0.776887 -1.123791 0.414184
v 0.870419 -2.410485 0.647830
v -0.812921 -1.155718 0.512500
v 0.834385 -2.442411 0.746146
v -0.821077 -1.181828 0.440086
v 0.826230 -2.468521 0.673733
v 1.207807 -4.306062 0.927586
v 0.814621 -0.923105 0.339933
v 1.207807 -4.277477 1.092139
v 0.814621 -0.894521 0.504487
v 1.041873 -4.324783 0.930838
v 0.648688 -0.941826 0.343185
v 1.041874 -4.296198 1.095391
v 0.648688 -0.913242 0.507739
v 1.207807 -4.275554 -1.095507
v 0.814621 -0.895625 -0.490681
v 1.207807 -4.304974 -0.931101
v 0.814621 -0.925045 -0.326274
v 1.041873 -4.294258 -1.098854
v 0.648687 -0.914329 -0.494028
v 1.041873 -4.323678 -0.934448
v 0.648687 -0.943749 -0.329621
v 0.000000 -1.000000 -1.000000
v 0.000000 1.000000 -1.000000
v 0.382683 -1.000000 -0.923880
v 0.382683 1.000000 -0.923880
v 0.707107 -1.000000 -0.707107
v 0.707107 1.000000 -0.707107
v 0.923880 -1.000000 -0.382683
v 0.923880 1.000000 -0.382683
v 1.000000 -1.000000 0.000000
v 1.000000 1.000000 0.000000
v 0.923880 -1.000000 0.382684
v 0.923880 1.000000 0.382684
v 0.707107 -1.000000 0.707107
v 0.707107 1.000000 0.707107
v 0.382683 -1.000000 0.923880
v 0.382683 1.000000 0.923880
v 0.000000 -1.000000 1.000000
v 0.000000 1.000000 1.000000
v -0.382683 -1.000000 0.923880
v -0.382683 1.000000 0.923880
v -0.707107 -1.000000 0.707107
v -0.707107 1.000000 0.707107
v -0.923880 -1.000000 0.382684
v -0.923880 1.000000 0.382684
v -1.000000 -1.000000 -0.000000
v -1.000000 1.000000 -0.000000
v -0.923879 -1.000000 -0.382684
v -0.923879 1.000000 -0.382684
v -0.707107 -1.000000 -0.707107
v -0.707107 1.000000 -0.707107
v -0.382683 -1.000000 -0.923880
v -0.382683 1.000000 -0.923880
v 0.000000 1.418777 -0.000000
vn -0.0000 0.9865 -0.1636
vn -0.0000 -0.1636 -0.9865
vn 0.0000 -0.9865 0.1636
vn 0.0000 0.1636 0.9865
vn -1.0000 -0.0000 0.0000
vn 1.0000 -0.0000 0.0000
vn 0.0000 0.9967 0.0813
vn -0.0000 -0.0813 0.9967
vn -0.0000 -0.9967 -0.0813
vn 0.0000 0.0813 -0.9967
vn -0.1010 0.9949 0.0000
vn -0.9949 -0.1010 -0.0000
vn 0.1010 -0.9949 -0.0000
vn 0.9949 0.1010 0.0000
vn 0.0000 -0.0000 1.0000
vn 0.0000 0.0000 -1.0000
vn 0.0855 0.9963 -0.0000
vn 0.9963 -0.0855 -0.0000
vn -0.0855 -0.9963 0.0000
vn -0.9963 0.0855 0.0000
vn 0.6171 0.7860 -0.0374
vn -0.1069 0.0365 -0.9936
vn -0.6171 -0.7860 0.0374
vn 0.1069 -0.0365 0.9936
vn -0.8142 0.5706 0.1067
vn 0.8142 -0.5706 -0.1067
vn -0.0912 0.6573 -0.7481
vn -0.9919 -0.0025 0.1273
vn 0.0912 -0.6573 0.7481
vn 0.9919 0.0025 -0.1273
vn 0.0759 0.5755 0.8142
vn -0.0759 -0.5755 -0.8142
vn -0.9935 0.1120 -0.0200
vn -0.0000 -0.1761 -0.9844
vn 0.9935 -0.1120 0.0200
vn 0.0000 0.1761 0.9844
vn -0.1138 -0.9780 0.1750
vn 0.1138 0.9780 -0.1750
vn -0.9935 0.1121 0.0195
vn 0.0000 0.1711 -0.9852
vn 0.9935 -0.1121 -0.0195
vn 0.0000 -0.1711 0.9852
vn -0.1138 -0.9788 -0.1700
vn 0.1138 0.9788 0.1700
vn 0.6160 0.7869 -0.0372
vn -0.1052 0.0354 -0.9938
vn -0.6160 -0.7869 0.0372
vn 0.1052 -0.0353 0.9938
vn -0.0000 0.9865 0.1636
vn -0.0000 -0.1636 0.9865
vn -0.0000 -0.9865 -0.1636
vn 0.0000 0.1636 -0.9865
vn -0.2477 0.6226 -0.7423
vn -0.9629 -0.2237 0.1510
vn 0.2477 -0.6226 0.7423
vn 0.9629 0.2237 -0.1510
vn -0.0648 0.5769 0.8142
vn 0.0648 -0.5769 -0.8142
vn -0.0870 0.7092 -0.6996
vn -0.9924 -0.0055 0.1230
vn 0.0870 -0.7092 0.6996
vn 0.9924 0.0055 -0.1230
vn -0.2548 0.6666 -0.7005
vn -0.9624 -0.2368 0.1329
vn 0.2548 -0.6666 0.7005
vn 0.9624 0.2368 -0.1329
vn 0.6284 0.7065 -0.3255
vn -0.1259 -0.3228 -0.9381
vn -0.6284 -0.7065 0.3255
vn 0.1259 0.3228 0.9381
vn -0.8142 0.5693 -0.1136
vn 0.8142 -0.5693 0.1136
vn 0.3827 0.0000 -0.9239
vn 0.9239 0.0000 -0.3827
vn 0.9239 0.0000 0.3827
vn 0.3827 0.0000 0.9239
vn -0.3827 -0.0000 0.9239
vn -0.9239 -0.0000 0.3827
vn -0.0000 1.0000 0.0000
vn -0.9239 -0.0000 -0.3827
vn -0.3827 -0.0000 -0.9239
vn 0.0000 -1.0000 0.0000
vn 0.6099 0.7211 -0.3287
vn -0.1216 -0.3259 -0.9376
vn -0.6099 -0.7211 0.3287
vn 0.1216 0.3259 0.9376
vn 0.9935 0.1121 -0.0195
vn 0.0000 0.1711 0.9852
vn -0.9935 -0.1121 0.0195
vn -0.0000 -0.1711 -0.9852
vn 0.1138 -0.9788 0.1700
vn -0.1138 0.9788 -0.1700
vn 0.9935 0.1120 0.0200
vn 0.0000 -0.1761 0.9844
vn -0.9935 -0.1120 -0.0200
vn -0.0000 0.1761 -0.9844
vn 0.1138 -0.9780 -0.1750
vn -0.1138 0.9780 0.1750
vn 0.1951 0.0000 -0.9808
vn 0.5556 0.0000 -0.8315
vn 0.8315 0.0000 -0.5556
vn 0.9808 0.0000 -0.1951
vn 0.9808 0.0000 0.1951
vn 0.8315 0.0000 0.5556
vn 0.5556 0.0000 0.8315
vn 0.1951 0.0000 0.9808
vn -0.1951 0.0000 0.9808
vn -0.5556 0.0000 0.8315
vn -0.8315 0.0000 0.5556
vn -0.9808 0.0000 0.1951
vn -0.9808 0.0000 -0.1951
vn -0.8315 0.0000 -0.5556
vn 0.3265 0.9197 0.2182
vn -0.5556 0.0000 -0.8315
vn -0.1951 0.0000 -0.9808
vn -0.3265 0.9197 0.2182
vn -0.0766 0.9197 -0.3851
vn 0.3851 0.9197 -0.0766
vn -0.0766 0.9197 0.3851
vn -0.3265 0.9197 -0.2182
vn 0.2182 0.9197 -0.3265
vn 0.2182 0.9197 0.3265
vn -0.3851 0.9197 0.0766
vn 0.3851 0.9197 0.0766
vn -0.2182 0.9197 0.3265
vn -0.2182 0.9197 -0.3265
vn 0.3265 0.9197 -0.2182
vn 0.0766 0.9197 0.3851
vn 0.0766 0.9197 -0.3851
vn -0.3851 0.9197 -0.0766
usemtl None
s off
f 1//1 2//1 4//1 3//1
f 3//2 4//2 8//2 7//2
f 7//3 8//3 6//3 5//3
f 5//4 6//4 2//4 1//4
f 3//5 7//5 5//5 1//5
f 8//6 4//6 2//6 6//6
f 9//7 10//7 12//7 11//7
f 11//8 12//8 16//8 15//8
f 15//9 16//9 14//9 13//9
f 13//10 14//10 10//10 9//10
f 11//6 15//6 13//6 9//6
f 16//5 12//5 10//5 14//5
f 17//11 18//11 20//11 19//11
f 19//12 20//12 24//12 23//12
f 23//13 24//13 22//13 21//13
f 21//14 22//14 18//14 17//14
f 19//15 23//15 21//15 17//15
f 24//16 20//16 18//16 22//16
f 25//17 26//17 28//17 27//17
f 27//18 28//18 32//18 31//18
f 31//19 32//19 30//19 29//19
f 29//20 30//20 26//20 25//20
f 27//16 31//16 29//16 25//16
f 32//15 28//15 26//15 30//15
f 33//21 34//21 36//21 35//21
f 35//22 36//22 40//22 39//22
f 39//23 40//23 38//23 37//23
f 37//24 38//24 34//24 33//24
f 35//25 39//25 37//25 33//25
f 40//26 36//26 34//26 38//26
f 41//27 42//27 44//27 43//27
f 43//28 44//28 48//28 47//28
f 47//29 48//29 46//29 45//29
f 45//30 46//30 42//30 41//30
f 43//31 47//31 45//31 41//31
f 48//32 44//32 42//32 46//32
f 49//17 50//17 52//17 51//17
f 51//18 52//18 56//18 55//18
f 55//19 56//19 54//19 53//19
f 53//20 54//20 50//20 49//20
f 51//16 55//16 53//16 49//16
f 56//15 52//15 50//15 54//15
f 57//1 58//1 60//1 59//1
f 59//2 60//2 64//2 63//2
f 63//3 64//3 62//3 61//3
f 61//4 62//4 58//4 57//4
f 59//5 63//5 61//5 57//5
f 64//6 60//6 58//6 62//6
f 65//33 66//33 68//33 67//33
f 67//34 68//34 72//34 71//34
f 71//35 72//35 70//35 69//35
f 69//36 70//36 66//36 65//36
f 67//37 71//37 69//37 65//37
f 72//38 68//38 66//38 70//38
f 73//39 74//39 76//39 75//39
f 75//40 76//40 80//40 79//40
f 79//41 80//41 78//41 77//41
f 77//42 78//42 74//42 73//42
f 75//43 79//43 77//43 73//43
f 80//44 76//44 74//44 78//44
f 81//45 82//45 84//45 83//45
f 83//46 84//46 88//46 87//46
f 87//47 88//47 86//47 85//47
f 85//48 86//48 82//48 81//48
f 83//25 87//25 85//25 81//25
f 88//26 84//26 82//26 86//26
f 89//49 90//49 92//49 91//49
f 91//50 92//50 96//50 95//50
f 95//51 96//51 94//51 93//51
f 93//52 94//52 90//52 89//52
f 91//6 95//6 93//6 89//6
f 96//5 92//5 90//5 94//5
f 97//53 98//53 100//53 99//53
f 99//54 100//54 104//54 103//54
f 103//55 104//55 102//55 101//55
f 101//56 102//56 98//56 97//56
f 99//57 103//57 101//57 97//57
f 104//58 100//58 98//58 102//58
f 105//59 106//59 108//59 107//59
f 107//60 108//60 112//60 111//60
f 111//61 112//61 110//61 109//61
f 109//62 110//62 106//62 105//62
f 107//31 111//31 109//31 105//31
f 112//32 108//32 106//32 110//32
f 113//63 114//63 116//63 115//63
f 115//64 116//64 120//64 119//64
f 119//65 120//65 118//65 117//65
f 117//66 118//66 114//66 113//66
f 115//57 119//57 117//57 113//57
f 120//58 116//58 114//58 118//58
f 121//67 122//67 124//67 123//67
f 123//68 124//68 128//68 127//68
f 127//69 128//69 126//69 125//69
f 125//70 126//70 122//70 121//70
f 123//71 127//71 125//71 121//71
f 128//72 124//72 122//72 126//72
f 129//73 130//73 132//73 131//73
f 131//74 132//74 134//74 133//74
f 133//75 134//75 136//75 135//75
f 135//76 136//76 138//76 137//76
f 137//77 138//77 140//77 139//77
f 139//78 140//78 142//78 141//78
f 132//79 130//79 144//79 142//79 140//79 138//79 136//79 134//79
f 141//80 142//80 144//80 143//80
f 143//81 144//81 130//81 129//81
f 129//82 131//82 133//82 135//82 137//82 139//82 141//82 143//82
f 145//11 146//11 148//11 147//11
f 147//12 148//12 152//12 151//12
f 151//13 152//13 150//13 149//13
f 149//14 150//14 146//14 145//14
f 147//15 151//15 149//15 145//15
f 152//16 148//16 146//16 150//16
f 153//83 154//83 156//83 155//83
f 155//84 156//84 160//84 159//84
f 159//85 160//85 158//85 157//85
f 157//86 158//86 154//86 153//86
f 155//71 159//71 157//71 153//71
f 160//72 156//72 154//72 158//72
f 161//87 162//87 164//87 163//87
f 163//88 164//88 168//88 167//88
f 167//89 168//89 166//89 165//89
f 165//90 166//90 162//90 161//90
f 163//91 167//91 165//91 161//91
f 168//92 164//92 162//92 166//92
f 169//93 170//93 172//93 171//93
f 171//94 172//94 176//94 175//94
f 175//95 176//95 174//95 173//95
f 173//96 174//96 170//96 169//96
f 171//97 175//97 173//97 169//97
f 176//98 172//98 170//98 174//98
f 177//99 178//99 180//99 179//99
f 179//100 180//100 182//100 181//100
f 181//101 182//101 184//101 183//101
f 183//102 184//102 186//102 185//102
f 185//103 186//103 188//103 187//103
f 187//104 188//104 190//104 189//104
f 189//105 190//105 192//105 191//105
f 191//106 192//106 194//106 193//106
f 193//107 194//107 196//107 195//107
f 195//108 196//108 198//108 197//108
f 197//109 198//109 200//109 199//109
f 199//110 200//110 202//110 201//110
f 201//111 202//111 204//111 203//111
f 203//112 204//112 206//112 205//112
f 190//113 188//113 209//113
f 205//114 206//114 208//114 207//114
f 207//115 208//115 178//115 177//115
f 177//82 179//82 181//82 183//82 185//82 187//82 189//82 191//82 193//82 195//82 197//82 199//82 201//82 203//82 205//82 207//82
f 200//116 198//116 209//116
f 178//117 208//117 209//117
f 186//118 184//118 209//118
f 196//119 194//119 209//119
f 206//120 204//120 209//120
f 182//121 180//121 209//121
f 192//122 190//122 209//122
f 202//123 200//123 209//123
f 188//124 186//124 209//124
f 198//125 196//125 209//125
f 208//126 206//126 209//126
f 184//127 182//127 209//127
f 194//128 192//128 209//128
f 180//129 178//129 209//129
f 204//130 202//130 209//130
